<svg version="1.1" id="All" xmlns="http://www.w3.org/2000/svg" xmlns:xlink="http://www.w3.org/1999/xlink" x="0px" y="0px" viewBox="0 0 1280 720" style="enable-background:new 0 0 1280 720;" xml:space="preserve">
<g>
  <path style="fill:#B2BAC2;" d="M657.35,705.21H99.41c-17.15,0-31.15-14-31.15-31.15V359.41H688.3v314.65
    C688.3,691.22,674.5,705.21,657.35,705.21z"></path>
  <path style="fill:#C8CFD6;" d="M657.35,694.76H99.41c-17.15,0-31.15-14-31.15-31.15V348.96H688.3v314.65
    C688.3,680.77,674.5,694.76,657.35,694.76z"></path>
  <path style="fill:#63717C;" d="M637.44,557.94H119.12c-7.29,0-13.41-5.91-13.41-13.41V405.15c0-7.29,5.91-13.41,13.41-13.41h518.31
    c7.29,0,13.41,5.91,13.41,13.41v139.39C650.84,552.03,644.93,557.94,637.44,557.94z"></path>
  <path style="fill:#333F47;" d="M160.53,418.36h-31.15c-3.55,0-6.51-2.96-6.51-6.51l0,0c0-3.55,2.96-6.51,6.51-6.51h31.15
    c3.55,0,6.51,2.96,6.51,6.51l0,0C167.03,415.4,164.07,418.36,160.53,418.36z"></path>
  <path style="fill:#333F47;" d="M212.57,418.36h-30.95c-3.55,0-6.51-2.96-6.51-6.51l0,0c0-3.55,2.96-6.51,6.51-6.51h31.15
    c3.55,0,6.51,2.96,6.51,6.51l0,0C219.08,415.4,216.32,418.36,212.57,418.36z"></path>
  <path style="fill:#333F47;" d="M264.82,418.36h-31.15c-3.55,0-6.51-2.96-6.51-6.51l0,0c0-3.55,2.96-6.51,6.51-6.51h31.15
    c3.55,0,6.51,2.96,6.51,6.51l0,0C271.33,415.4,268.37,418.36,264.82,418.36z"></path>
  <path style="fill:#333F47;" d="M317.06,418.36h-31.15c-3.55,0-6.51-2.96-6.51-6.51l0,0c0-3.55,2.96-6.51,6.51-6.51h31.15
    c3.55,0,6.51,2.96,6.51,6.51l0,0C323.57,415.4,320.61,418.36,317.06,418.36z"></path>
  <path style="fill:#333F47;" d="M369.31,418.36h-31.15c-3.55,0-6.51-2.96-6.51-6.51l0,0c0-3.55,2.96-6.51,6.51-6.51h31.15
    c3.55,0,6.51,2.96,6.51,6.51l0,0C375.82,415.4,372.86,418.36,369.31,418.36z"></path>
  <path style="fill:#333F47;" d="M421.56,418.36h-31.15c-3.55,0-6.51-2.96-6.51-6.51l0,0c0-3.55,2.96-6.51,6.51-6.51h31.15
    c3.55,0,6.51,2.96,6.51,6.51l0,0C428.06,415.4,425.1,418.36,421.56,418.36z"></path>
  <path style="fill:#333F47;" d="M473.8,418.36h-31.15c-3.55,0-6.51-2.96-6.51-6.51l0,0c0-3.55,2.96-6.51,6.51-6.51h31.15
    c3.55,0,6.51,2.96,6.51,6.51l0,0C480.11,415.4,477.35,418.36,473.8,418.36z"></path>
  <path style="fill:#333F47;" d="M525.85,418.36H494.7c-3.55,0-6.51-2.96-6.51-6.51l0,0c0-3.55,2.96-6.51,6.51-6.51h31.15
    c3.55,0,6.51,2.96,6.51,6.51l0,0C532.35,415.4,529.59,418.36,525.85,418.36z"></path>
  <path style="fill:#333F47;" d="M578.09,418.36h-31.15c-3.55,0-6.51-2.96-6.51-6.51l0,0c0-3.55,2.96-6.51,6.51-6.51h31.15
    c3.55,0,6.51,2.96,6.51,6.51l0,0C584.6,415.4,581.64,418.36,578.09,418.36z"></path>
  <path style="fill:#333F47;" d="M630.34,418.36h-31.15c-3.55,0-6.51-2.96-6.51-6.51l0,0c0-3.55,2.96-6.51,6.51-6.51h31.15
    c3.55,0,6.51,2.96,6.51,6.51l0,0C636.85,415.4,633.89,418.36,630.34,418.36z"></path>
  <path style="fill:#333F47;" d="M160.53,461.34h-31.15c-3.55,0-6.51-2.96-6.51-6.51v-22.67c0-3.55,2.96-6.51,6.51-6.51h31.15
    c3.55,0,6.51,2.96,6.51,6.51v22.67C167.03,458.38,164.07,461.34,160.53,461.34z"></path>
  <path style="fill:#333F47;" d="M212.57,461.34h-30.95c-3.55,0-6.51-2.96-6.51-6.51v-22.67c0-3.55,2.96-6.51,6.51-6.51h31.15
    c3.55,0,6.51,2.96,6.51,6.51v22.67C219.08,458.38,216.32,461.34,212.57,461.34z"></path>
  <path style="fill:#333F47;" d="M264.82,461.34h-31.15c-3.55,0-6.51-2.96-6.51-6.51v-22.67c0-3.55,2.96-6.51,6.51-6.51h31.15
    c3.55,0,6.51,2.96,6.51,6.51v22.67C271.33,458.38,268.37,461.34,264.82,461.34z"></path>
  <path style="fill:#333F47;" d="M317.06,461.34h-31.15c-3.55,0-6.51-2.96-6.51-6.51v-22.67c0-3.55,2.96-6.51,6.51-6.51h31.15
    c3.55,0,6.51,2.96,6.51,6.51v22.67C323.57,458.38,320.61,461.34,317.06,461.34z"></path>
  <path style="fill:#333F47;" d="M369.31,461.34h-31.15c-3.55,0-6.51-2.96-6.51-6.51v-22.67c0-3.55,2.96-6.51,6.51-6.51h31.15
    c3.55,0,6.51,2.96,6.51,6.51v22.67C375.82,458.38,372.86,461.34,369.31,461.34z"></path>
  <path style="fill:#333F47;" d="M421.56,461.34h-31.15c-3.55,0-6.51-2.96-6.51-6.51v-22.67c0-3.55,2.96-6.51,6.51-6.51h31.15
    c3.55,0,6.51,2.96,6.51,6.51v22.67C428.06,458.38,425.1,461.34,421.56,461.34z"></path>
  <path style="fill:#333F47;" d="M473.8,461.34h-31.15c-3.55,0-6.51-2.96-6.51-6.51v-22.67c0-3.55,2.96-6.51,6.51-6.51h31.15
    c3.55,0,6.51,2.96,6.51,6.51v22.67C480.11,458.38,477.35,461.34,473.8,461.34z"></path>
  <path style="fill:#333F47;" d="M525.85,461.34H494.7c-3.55,0-6.51-2.96-6.51-6.51v-22.67c0-3.55,2.96-6.51,6.51-6.51h31.15
    c3.55,0,6.51,2.96,6.51,6.51v22.67C532.35,458.38,529.59,461.34,525.85,461.34z"></path>
  <path style="fill:#333F47;" d="M578.09,461.34h-31.15c-3.55,0-6.51-2.96-6.51-6.51v-22.67c0-3.55,2.96-6.51,6.51-6.51h31.15
    c3.55,0,6.51,2.96,6.51,6.51v22.67C584.6,458.38,581.64,461.34,578.09,461.34z"></path>
  <path style="fill:#333F47;" d="M630.34,461.34h-31.15c-3.55,0-6.51-2.96-6.51-6.51v-22.67c0-3.55,2.96-6.51,6.51-6.51h31.15
    c3.55,0,6.51,2.96,6.51,6.51v22.67C636.85,458.38,633.89,461.34,630.34,461.34z"></path>
  <path style="fill:#333F47;" d="M212.57,504.32h-83.2c-3.55,0-6.51-2.96-6.51-6.51v-22.67c0-3.55,2.96-6.51,6.51-6.51h83.4
    c3.55,0,6.51,2.96,6.51,6.51v22.67C219.08,501.36,216.32,504.32,212.57,504.32z"></path>
  <path style="fill:#333F47;" d="M264.82,504.32h-31.15c-3.55,0-6.51-2.96-6.51-6.51v-22.67c0-3.55,2.96-6.51,6.51-6.51h31.15
    c3.55,0,6.51,2.96,6.51,6.51v22.67C271.33,501.36,268.37,504.32,264.82,504.32z"></path>
  <path style="fill:#333F47;" d="M317.06,504.32h-31.15c-3.55,0-6.51-2.96-6.51-6.51v-22.67c0-3.55,2.96-6.51,6.51-6.51h31.15
    c3.55,0,6.51,2.96,6.51,6.51v22.67C323.57,501.36,320.61,504.32,317.06,504.32z"></path>
  <path style="fill:#333F47;" d="M369.31,504.32h-31.15c-3.55,0-6.51-2.96-6.51-6.51v-22.67c0-3.55,2.96-6.51,6.51-6.51h31.15
    c3.55,0,6.51,2.96,6.51,6.51v22.67C375.82,501.36,372.86,504.32,369.31,504.32z"></path>
  <path style="fill:#333F47;" d="M421.56,504.32h-31.15c-3.55,0-6.51-2.96-6.51-6.51v-22.67c0-3.55,2.96-6.51,6.51-6.51h31.15
    c3.55,0,6.51,2.96,6.51,6.51v22.67C428.06,501.36,425.1,504.32,421.56,504.32z"></path>
  <path style="fill:#333F47;" d="M473.8,504.32h-31.15c-3.55,0-6.51-2.96-6.51-6.51v-22.67c0-3.55,2.96-6.51,6.51-6.51h31.15
    c3.55,0,6.51,2.96,6.51,6.51v22.67C480.11,501.36,477.35,504.32,473.8,504.32z"></path>
  <path style="fill:#333F47;" d="M525.85,504.32H494.7c-3.55,0-6.51-2.96-6.51-6.51v-22.67c0-3.55,2.96-6.51,6.51-6.51h31.15
    c3.55,0,6.51,2.96,6.51,6.51v22.67C532.35,501.36,529.59,504.32,525.85,504.32z"></path>
  <path style="fill:#333F47;" d="M630.34,504.32h-83.4c-3.55,0-6.51-2.96-6.51-6.51v-22.67c0-3.55,2.96-6.51,6.51-6.51h83.4
    c3.55,0,6.51,2.96,6.51,6.51v22.67C636.85,501.36,633.89,504.32,630.34,504.32z"></path>
  <path style="fill:#333F47;" d="M160.53,548.48h-31.15c-3.55,0-6.51-2.96-6.51-6.51V519.3c0-3.55,2.96-6.51,6.51-6.51h31.15
    c3.55,0,6.51,2.96,6.51,6.51v22.67C167.03,545.52,164.07,548.48,160.53,548.48z"></path>
  <path style="fill:#333F47;" d="M212.57,548.48h-30.95c-3.55,0-6.51-2.96-6.51-6.51V519.3c0-3.55,2.96-6.51,6.51-6.51h31.15
    c3.55,0,6.51,2.96,6.51,6.51v22.67C219.08,545.52,216.32,548.48,212.57,548.48z"></path>
  <path style="fill:#333F47;" d="M264.82,548.48h-31.15c-3.55,0-6.51-2.96-6.51-6.51V519.3c0-3.55,2.96-6.51,6.51-6.51h31.15
    c3.55,0,6.51,2.96,6.51,6.51v22.67C271.33,545.52,268.37,548.48,264.82,548.48z"></path>
  <path style="fill:#333F47;" d="M473.8,548.48H286.11c-3.55,0-6.51-2.96-6.51-6.51V519.3c0-3.55,2.96-6.51,6.51-6.51H473.8
    c3.55,0,6.51,2.96,6.51,6.51v22.67C480.11,545.52,477.35,548.48,473.8,548.48z"></path>
  <path style="fill:#333F47;" d="M525.85,548.48H494.7c-3.55,0-6.51-2.96-6.51-6.51V519.3c0-3.55,2.96-6.51,6.51-6.51h31.15
    c3.55,0,6.51,2.96,6.51,6.51v22.67C532.35,545.52,529.59,548.48,525.85,548.48z"></path>
  <path style="fill:#333F47;" d="M630.34,548.48h-83.4c-3.55,0-6.51-2.96-6.51-6.51v-4.93c0-3.55,2.96-6.51,6.51-6.51h83.4
    c3.55,0,6.51,2.96,6.51,6.51v4.93C636.85,545.52,633.89,548.48,630.34,548.48z"></path>
  <path style="fill:#333F47;" d="M597.02,530.54h-16.76c-3.55,0-6.51-2.96-6.51-6.51v-4.93c0-3.55,2.96-6.51,6.51-6.51h16.76
    c3.55,0,6.51,2.96,6.51,6.51v4.93C603.53,527.58,600.77,530.54,597.02,530.54z"></path>
  <rect x="573.76" y="527.97" style="fill:#63717C;" width="29.77" height="2.76"></rect>
  <path style="fill:#202428;" d="M688.3,352.9H68.26V45.94c0-17.15,14-31.15,31.15-31.15h557.94c17.15,0,31.15,14,31.15,31.15V352.9
    H688.3z"></path>
  <path style="fill:#B2BAC2;" d="M455.07,664.6H301.49c-7.29,0-13.41-5.91-13.41-13.41v-55.6c0-7.29,5.91-13.41,13.41-13.41h153.58
    c7.29,0,13.41,5.91,13.41,13.41v55.6C468.48,658.49,462.56,664.6,455.07,664.6z"></path>
  <rect x="181.42" y="41.6" style="fill:#FFFFFF;" width="489.73" height="293.17"></rect>
  <rect x="85.41" y="40.02" style="fill:#2D3339;" width="107.05" height="296.32"></rect>

    <line style="fill:none;stroke:#63717C;stroke-width:10;stroke-linecap:round;stroke-linejoin:round;stroke-miterlimit:10;" x1="103.75" y1="89.9" x2="170.78" y2="89.9"></line>

    <line style="fill:none;stroke:#3F8ABF;stroke-width:10;stroke-linecap:round;stroke-linejoin:round;stroke-miterlimit:10;" x1="218.09" y1="89.9" x2="285.13" y2="89.9"></line>

    <line style="fill:none;stroke:#B2BAC2;stroke-width:10;stroke-linecap:round;stroke-linejoin:round;stroke-miterlimit:10;" x1="218.09" y1="115.53" x2="630.14" y2="115.53"></line>

    <line style="fill:none;stroke:#B2BAC2;stroke-width:10;stroke-linecap:round;stroke-linejoin:round;stroke-miterlimit:10;" x1="218.09" y1="147.08" x2="496.08" y2="147.08"></line>

    <line style="fill:none;stroke:#63717C;stroke-width:10;stroke-linecap:round;stroke-linejoin:round;stroke-miterlimit:10;" x1="103.75" y1="115.53" x2="170.78" y2="115.53"></line>

    <line style="fill:none;stroke:#63717C;stroke-width:10;stroke-linecap:round;stroke-linejoin:round;stroke-miterlimit:10;" x1="103.75" y1="147.08" x2="170.78" y2="147.08"></line>

    <line style="fill:none;stroke:#63717C;stroke-width:10;stroke-linecap:round;stroke-linejoin:round;stroke-miterlimit:10;" x1="103.75" y1="172.71" x2="170.78" y2="172.71"></line>
  <rect x="789.44" y="41.2" style="fill:#B3B6BD;" width="21.49" height="45.15"></rect>
  <path style="fill:#E67670;" d="M810.93,41.2h-21.49V29.77c0-2.96,2.37-5.52,5.52-5.52h10.65c2.96,0,5.52,2.37,5.52,5.52V41.2
    H810.93z"></path>
  <polygon style="fill:#F3DFB7;" points="810.93,494.85 789.44,494.85 796.14,524.42 803.64,524.42 	"></polygon>
  <polygon style="fill:#364651;" points="803.64,524.42 796.14,524.42 799.69,540 	"></polygon>
  <rect x="789.44" y="41.2" style="fill:#969BA5;" width="21.49" height="5.91"></rect>
  <rect x="789.44" y="60.92" style="fill:#969BA5;" width="21.49" height="5.91"></rect>
  <rect x="789.44" y="80.44" style="fill:#969BA5;" width="21.49" height="5.91"></rect>
  <polygon style="fill:#E0AB26;" points="794.76,127.36 794.76,112.18 800.28,112.18 800.28,86.35 789.44,86.35 789.44,494.85
    794.57,499.78 799.5,494.85 800.28,494.85 800.28,127.36 	"></polygon>
  <polygon style="fill:#E5B950;" points="799.28,86.35 799.28,112.18 805.61,112.18 805.61,127.36 799.28,127.36 799.5,494.85
    800.68,494.85 805.61,499.78 810.54,494.85 810.93,494.85 810.93,86.35 	"></polygon>
  <polygon style="fill:#C5812C;" points="794.76,127.36 800.28,127.36 805.61,127.36 805.61,112.18 800.28,112.18 794.76,112.18 	"></polygon>
  <path style="fill:#444F99;" d="M1169.95,688.26H916.01c-3.94,0-7.1-3.15-7.1-7.1V296.52h261.03c7.49,0,13.6,6.11,13.6,13.6v364.73
    C1183.55,682.34,1177.44,688.26,1169.95,688.26z"></path>
  <path style="fill:#FFFFFF;" d="M1162.06,681.16H915.62V285.08h246.44c7.49,0,13.6,6.11,13.6,13.6v368.87
    C1175.66,675.05,1169.55,681.16,1162.06,681.16z"></path>
  <path style="opacity:0.2;fill:#18242A;enable-background:new    ;" d="M1169.95,673.27H915.42V261.42h254.52
    c7.49,0,13.6,6.11,13.6,13.6v384.84C1183.55,667.16,1177.44,673.27,1169.95,673.27z"></path>
  <path style="fill:#838CC7;" d="M1169.95,666.97H908.92V255.11h261.03c7.49,0,13.6,6.11,13.6,13.6v384.84
    C1183.55,660.85,1177.44,666.97,1169.95,666.97z"></path>
  <polyline style="opacity:0.2;fill:#3D3126;enable-background:new    ;" points="908.92,673.08 915.42,673.08 915.42,255.11
    908.92,255.11 	"></polyline>
  <rect x="908.92" y="331.02" style="fill:#9FA1A7;" width="3.35" height="41.01"></rect>
  <rect x="908.92" y="565.24" style="fill:#9FA1A7;" width="3.35" height="41.01"></rect>
  <path style="fill:#7DCFEF;" d="M830.84,694.76h-48.89c-2.96,0-5.52-2.37-5.52-5.52V594.8c0-2.96,2.37-5.52,5.52-5.52h48.89
    c2.96,0,5.52,2.37,5.52,5.52v94.44C836.36,692.2,833.8,694.76,830.84,694.76z"></path>
  <path style="fill:#3F8ABF;" d="M822.37,694.76h-40.42c-2.96,0-5.52-2.37-5.52-5.52V594.8c0-2.96,2.37-5.52,5.52-5.52h40.42V694.76z
    "></path>
  <rect x="810.93" y="589.29" style="fill:#C8CFD6;" width="11.43" height="92.07"></rect>
  <rect x="789.44" y="589.29" style="fill:#B2BAC2;" width="21.88" height="92.07"></rect>
  <circle style="fill:#959BA0;" cx="810.93" cy="635.42" r="9.07"></circle>
  <path style="fill:none;stroke:#202428;stroke-width:16;stroke-linecap:round;stroke-linejoin:round;stroke-miterlimit:10;" d="
    M1211.74,85.17l-225.15,24.64c-15.97,1.77-30.16,10.45-39.23,23.66l-56.39,66.64"></path>
  <path style="fill:none;stroke:#202428;stroke-width:16;stroke-linecap:round;stroke-linejoin:round;stroke-miterlimit:10;" d="
    M877.17,85.17l225.15,24.64c15.97,1.77,30.16,10.45,39.23,23.66l51.06,71.96"></path>
  <path style="fill:none;stroke:#202428;stroke-width:16;stroke-linecap:round;stroke-linejoin:round;stroke-miterlimit:10;" d="
    M1001.38,90.69c11.63-8.28,25.83-13.41,41.2-13.41c16.56,0,31.74,5.72,43.77,15.38"></path>

    <path style="fill:#FFE7B3;fill-opacity:0.2;stroke:#2D3339;stroke-width:16;stroke-linecap:round;stroke-linejoin:round;stroke-miterlimit:10;" d="
    M1206.81,128.74c0,38.84-31.54,70.38-70.38,70.38s-70.38-31.54-70.38-70.38s31.54-56.78,70.38-56.78
    C1175.27,71.96,1206.81,89.9,1206.81,128.74z"></path>

    <path style="fill:#FFE7B3;fill-opacity:0.2;stroke:#2D3339;stroke-width:16;stroke-linecap:round;stroke-linejoin:round;stroke-miterlimit:10;" d="
    M1025.04,128.74c0,38.84-31.54,70.38-70.38,70.38s-70.38-31.54-70.38-70.38s31.54-56.78,70.38-56.78
    C993.49,71.96,1025.04,89.9,1025.04,128.74z"></path>
  <rect x="218.69" y="202.08" style="fill:#D6DEE5;" width="195.77" height="105.67"></rect>
  <rect x="446.4" y="202.08" style="fill:#D6DEE5;" width="197.55" height="105.67"></rect>

    <line style="fill:none;stroke:#B2BAC2;stroke-width:10;stroke-linecap:round;stroke-linejoin:round;stroke-miterlimit:10;" x1="259.5" y1="225.94" x2="373.84" y2="225.94"></line>

    <line style="fill:none;stroke:#B2BAC2;stroke-width:10;stroke-linecap:round;stroke-linejoin:round;stroke-miterlimit:10;" x1="488.19" y1="225.94" x2="602.54" y2="225.94"></line>
  <g style="enable-background:new    ;">
    <path style="fill:#BFC7E8;" d="M1006.75,476.48l-29.88-14.19c-3.37-1.6-5.41-4.08-5.41-7.54v-0.89c0-3.46,2.04-5.94,5.41-7.54
      l29.88-14.19c1.06-0.53,2.04-0.89,3.28-0.89c2.84-0.09,5.41,2.39,5.41,5.59c0,2.57-1.42,4.34-3.72,5.41l-26.78,11.97l26.78,11.97
      c2.31,1.06,3.72,3.1,3.72,5.59c0,3.28-2.57,5.59-5.85,5.5C1008.62,477.28,1007.64,476.92,1006.75,476.48z"></path>
    <path style="fill:#BFC7E8;" d="M1023.61,489.78l34.67-72.44c0.97-2.04,2.57-3.1,4.7-3.1c2.84,0,5.23,2.39,5.23,5.05
      c0,0.97-0.35,1.95-0.62,2.57l-34.67,72.44c-0.98,2.04-2.57,3.1-4.7,3.1c-2.84,0-5.23-2.39-5.23-5.05
      C1022.98,491.38,1023.34,490.4,1023.61,489.78z"></path>
    <path style="fill:#BFC7E8;" d="M1085.68,432.15l29.88,14.19c3.37,1.6,5.41,4.08,5.41,7.54v0.89c0,3.46-2.04,5.94-5.41,7.54
      l-29.88,14.19c-1.06,0.53-2.04,0.89-3.28,0.89c-2.84,0.09-5.41-2.39-5.41-5.59c0-2.57,1.42-4.34,3.72-5.41l26.78-11.97
      l-26.78-11.97c-2.31-1.06-3.72-3.1-3.72-5.59c0-3.28,2.57-5.59,5.85-5.5C1083.81,431.35,1084.79,431.7,1085.68,432.15z"></path>
  </g>
</g>
</svg>