<svg version="1.1" id="All" xmlns="http://www.w3.org/2000/svg" xmlns:xlink="http://www.w3.org/1999/xlink" x="0px" y="0px" viewBox="0 0 1280 720" style="enable-background:new 0 0 1280 720;" xml:space="preserve">
<g>
  <path style="fill:#60B7E2;" d="M492.42,39.63H417.3c-6.9,0-12.62,5.52-12.62,12.62v12.03c0,6.9,5.52,12.62,12.62,12.62h75.11
    c6.9,0,12.62-5.52,12.62-12.62V52.25C504.84,45.15,499.32,39.63,492.42,39.63z"></path>
  <rect x="112.11" y="65.45" style="fill:#EDEFF0;" width="415.99" height="297.31"></rect>
  <path style="fill:#7DCFEF;" d="M527.32,76.3H112.31c-6.9,0-12.62,5.52-12.62,12.62v275.82c0,6.9,5.52,12.62,12.62,12.62h415.01
    c6.9,0,12.62-5.52,12.62-12.62V88.72C539.74,81.82,534.22,76.3,527.32,76.3z"></path>
  <path style="fill:#444F99;" d="M443.72,98.18l-74.52,8.28c-6.9,0.79-11.83,6.9-11.04,13.8l1.38,11.83
    c0.79,6.9,6.9,11.83,13.8,11.04l74.52-8.28c6.9-0.79,11.83-6.9,11.04-13.8l-1.38-11.83C456.93,102.32,450.62,97.39,443.72,98.18z"></path>

    <rect x="83.94" y="142.14" transform="matrix(-0.9939 0.1103 -0.1103 -0.9939 614.155 547.607)" style="fill:#EDEFF0;" width="415.99" height="297.31"></rect>
  <path style="fill:#838CC7;" d="M482.56,130.71L70.12,176.65c-6.9,0.79-11.83,6.9-11.04,13.8l30.36,274.24
    c0.79,6.9,6.9,11.83,13.8,11.04l412.44-45.94c6.9-0.79,11.83-6.9,11.04-13.8l-30.36-274.04
    C495.57,135.05,489.46,130.12,482.56,130.71z"></path>
  <polygon style="fill:#C8CFD6;" points="226.86,507.47 229.62,527.58 281.07,529.75 303.35,518.51 300.59,498.4 276.34,493.27 	"></polygon>

    <rect x="413.54" y="369.77" transform="matrix(0.1292 0.9916 -0.9916 0.1292 857.3211 8.7208)" style="fill:#D6DEE5;" width="20.31" height="245.45"></rect>
  <path style="fill:#444F99;" d="M381.42,470.41l6.9,53.43c0.59,4.93,5.32,8.48,10.25,7.89l142.34-18.53
    c4.93-0.59,8.48-5.32,7.89-10.25l-6.9-53.43c-0.59-4.93-5.32-8.48-10.25-7.89l-142.34,18.53
    C384.18,460.74,380.63,465.28,381.42,470.41z"></path>
  <path style="fill:#838CC7;" d="M408.24,494.65L408.24,494.65c0.79,5.52,5.72,9.46,11.43,8.67l97.59-12.81
    c5.52-0.79,9.46-5.72,8.67-11.43l0,0c-0.79-5.52-5.72-9.46-11.43-8.67l-97.59,12.81C411.39,484.01,407.45,488.94,408.24,494.65z"></path>

    <rect x="419.04" y="566.71" transform="matrix(-0.1418 0.9899 -0.9899 -0.1418 1112.3463 267.2383)" style="fill:#D6DEE5;" width="42.59" height="98.18"></rect>
  <path style="fill:#C8CFD6;" d="M396.6,613.14c6.51-31.15-14.59-60.72-45.54-65.06c-11.83-1.77-23.46,0.59-33.32,5.72
    c-4.73,2.56-4.14,9.27,0.59,11.04l26.02,3.75l0.39-0.2l13.6,36.08l-23.26,30.76l-28.39-4.14c-3.55,1.58-4.93,6.51-1.77,9.66
    c8.48,8.48,19.91,14.2,32.92,15.38C365.45,658.88,391.08,640.15,396.6,613.14z"></path>
  <path style="fill:#C8CFD6;" d="M457.33,614.72c-6.51,31.15,14.59,60.72,45.54,65.06c11.83,1.77,23.46-0.59,33.32-5.72
    c4.34-2.17,4.14-7.69,0.99-10.25l-22.28-3.15l-0.39,0.2l-13.6-36.08l23.26-30.76l21.88,3.15c4.34-0.99,6.51-6.51,2.96-10.05
    c-8.48-8.48-19.91-14.2-32.92-15.38C488.67,568.98,463.04,587.91,457.33,614.72z"></path>
  <path id="gear_2_" style="fill:#444F99;" d="M175.4,627.93c1.38,1.58,3.15,2.37,5.13,2.37h13.01c0.99,1.58,2.37,2.76,3.15,3.94
    l-2.96,12.62c-0.39,1.97,0.2,3.75,1.18,5.52c1.38,1.58,2.76,2.56,4.53,3.55c1.77,0.99,3.35,1.38,5.32,1.77
    c0.99,0.2,1.38,0,2.37-0.2s2.17-1.18,2.76-1.77l8.87-9.46c1.58,0.39,3.55,0.39,4.93,0.39L231,657.7c0.99,1.58,2.76,2.56,4.73,2.96
    c2.56,0.59,4.93,0,6.11-0.39c2.17-0.59,3.94-1.58,5.13-2.56c1.58-1.38,2.37-3.15,2.37-5.13v-13.01c1.18-0.79,2.76-1.77,3.94-3.15
    l13.01,2.96c0.99,0.2,1.97,0,2.76-0.39c0.99-0.2,1.77-0.59,2.17-1.18c1.58-0.99,2.76-2.37,3.75-3.94c1.18-2.37,1.77-3.94,1.58-5.91
    c0.39-1.58-0.2-3.75-1.38-4.93l-9.46-8.87c0.39-1.97,0.2-3.94,0.39-5.52l10.84-7.29c1.58-0.99,2.56-2.76,2.96-4.73
    c0.39-1.97-0.2-3.75-0.79-5.52s-1.58-3.35-2.56-5.13c-1.38-1.58-3.15-2.37-5.13-2.37l-13.01,0.39c-0.99-1.58-2.37-2.76-3.15-3.94
    l2.96-13.01c0.39-1.97-0.2-3.75-1.18-5.52c-1.38-1.58-2.76-2.56-4.53-3.55c-1.77-0.99-3.75-1.38-5.32-1.77
    c-0.99,0.2-1.97,0-2.76,0.39c-0.99,0.2-2.17,1.18-2.76,1.77l-8.87,9.46c-1.58-0.39-3.55-0.39-4.93-0.39l-7.1-11.04
    c-0.99-1.58-2.76-2.56-4.73-2.96c-1.97-0.39-4.34,0.39-5.52,0.79c-2.17,0.59-3.94,1.58-5.13,2.56c-1.58,1.38-2.37,3.15-2.37,5.13
    v13.01c-1.18,0.79-2.76,2.37-3.94,3.15l-12.62-2.96c-0.99-0.2-1.97-0.39-3.35,0c-0.99,0.2-1.77,0.59-2.17,1.18
    c-1.58,1.38-2.56,2.76-3.55,4.53c-0.99,1.77-1.38,3.35-1.77,5.32c-0.39,1.97,0.59,3.75,1.97,5.13l9.46,8.87
    c-0.39,1.58-0.39,3.55-0.39,4.93l-11.04,7.1c-1.58,0.99-2.56,2.76-2.96,4.73c-0.39,1.97,0.2,3.75,0.79,5.52
    C173.62,625.17,174.61,626.75,175.4,627.93z M209.51,611.96c-2.76-8.87,2.56-18.73,11.43-21.49c8.87-2.76,18.73,2.56,21.49,11.63
    c2.76,8.87-2.56,18.73-11.43,21.49C222.12,626.16,212.27,621.23,209.51,611.96z"></path>
  <path id="gear_4_" style="fill:#838CC7;" d="M97.92,559.72c1.38,1.58,3.15,2.37,5.13,2.37h13.01c0.99,1.58,2.37,2.76,3.15,3.94
    l-2.96,12.62c-0.39,1.97,0.2,3.75,1.18,5.52c1.38,1.58,2.76,2.56,4.53,3.55s3.35,1.38,5.32,1.77c0.99,0.2,1.38,0,2.37-0.2
    c0.99-0.2,2.17-1.18,2.76-1.77l8.87-9.46c1.58,0.39,3.55,0.39,4.93,0.39l7.29,11.04c0.99,1.58,2.76,2.56,4.73,2.96
    c2.56,0.59,4.93,0,6.11-0.39c2.17-0.59,3.94-1.58,5.13-2.56c1.58-1.38,2.37-3.15,2.37-5.13v-13.01c1.18-0.79,2.76-1.77,3.94-3.15
    l13.01,2.96c0.99,0.2,1.97,0,2.76-0.39c0.99-0.2,1.77-0.59,2.17-1.18c1.58-0.99,2.76-2.37,3.75-3.94c1.18-2.37,1.77-3.94,1.58-5.91
    c0.39-1.58-0.2-3.75-1.38-4.93l-9.46-8.87c0.39-1.97,0.2-3.94,0.39-5.52l10.84-7.29c1.58-0.99,2.56-2.76,2.96-4.73
    c0.39-1.97-0.2-3.75-0.79-5.52s-1.58-3.35-2.56-5.13c-1.38-1.58-3.15-2.37-5.13-2.37l-13.01,0.39c-0.99-1.58-2.37-2.76-3.15-3.94
    l2.96-13.01c0.39-1.97-0.2-3.75-1.18-5.52c-1.38-1.58-2.76-2.56-4.53-3.55c-1.77-0.99-3.75-1.38-5.32-1.77
    c-0.99,0.2-1.97,0-2.76,0.39c-0.99,0.2-2.17,1.18-2.76,1.77l-8.87,9.46c-1.58-0.39-3.55-0.39-4.93-0.39l-7.1-11.04
    c-0.99-1.58-2.76-2.56-4.73-2.96c-1.97-0.39-4.34,0.39-5.52,0.79c-2.17,0.59-3.94,1.58-5.13,2.56c-1.58,1.38-2.37,3.15-2.37,5.13
    v13.01c-1.18,0.79-2.76,2.37-3.94,3.15l-12.62-2.96c-0.99-0.2-1.97-0.39-3.35,0c-0.99,0.2-1.77,0.59-2.17,1.18
    c-1.58,1.38-2.56,2.76-3.55,4.53c-0.99,1.77-1.38,3.35-1.77,5.32c-0.39,1.97,0.59,3.75,1.97,5.13l9.46,8.87
    c-0.39,1.58-0.39,3.55-0.39,4.93l-11.04,7.1c-1.58,0.99-2.56,2.76-2.96,4.73c-0.39,1.97,0.2,3.75,0.79,5.52
    C96.14,556.76,97.13,558.34,97.92,559.72z M132.03,543.55c-2.76-8.87,2.56-18.73,11.43-21.49c8.87-2.76,18.73,2.56,21.49,11.63
    c2.76,8.87-2.56,18.73-11.43,21.49C144.45,557.94,134.79,553.01,132.03,543.55z"></path>
  <path style="fill:#C8CFD6;" d="M141.69,602.89h-37.85l-18.93,32.53l18.93,32.53h37.85l18.93-32.53L141.69,602.89z M122.76,652.57
    c-9.07,0-16.36-7.29-16.36-16.36c0-9.07,7.29-16.36,16.36-16.36s16.36,7.29,16.36,16.36C138.93,645.28,131.63,652.57,122.76,652.57
    z"></path>
  <path style="fill:#B2BAC2;" d="M1189.85,705.21H631.91c-17.15,0-31.15-14-31.15-31.15V359.41h620.04v314.65
    C1220.8,691.22,1207,705.21,1189.85,705.21z"></path>
  <path style="fill:#C8CFD6;" d="M1189.85,694.76H631.91c-17.15,0-31.15-14-31.15-31.15V348.96h620.04v314.65
    C1220.8,680.77,1207,694.76,1189.85,694.76z"></path>
  <path style="fill:#63717C;" d="M1169.94,557.94H651.62c-7.29,0-13.41-5.91-13.41-13.41V405.15c0-7.29,5.91-13.41,13.41-13.41
    h518.31c7.29,0,13.41,5.91,13.41,13.41v139.39C1183.34,552.03,1177.43,557.94,1169.94,557.94z"></path>
  <path style="fill:#333F47;" d="M693.03,418.36h-31.15c-3.55,0-6.51-2.96-6.51-6.51l0,0c0-3.55,2.96-6.51,6.51-6.51h31.15
    c3.55,0,6.51,2.96,6.51,6.51l0,0C699.53,415.4,696.57,418.36,693.03,418.36z"></path>
  <path style="fill:#333F47;" d="M745.07,418.36h-30.95c-3.55,0-6.51-2.96-6.51-6.51l0,0c0-3.55,2.96-6.51,6.51-6.51h31.15
    c3.55,0,6.51,2.96,6.51,6.51l0,0C751.58,415.4,748.82,418.36,745.07,418.36z"></path>
  <path style="fill:#333F47;" d="M797.32,418.36h-31.15c-3.55,0-6.51-2.96-6.51-6.51l0,0c0-3.55,2.96-6.51,6.51-6.51h31.15
    c3.55,0,6.51,2.96,6.51,6.51l0,0C803.83,415.4,800.87,418.36,797.32,418.36z"></path>
  <path style="fill:#333F47;" d="M849.56,418.36h-31.15c-3.55,0-6.51-2.96-6.51-6.51l0,0c0-3.55,2.96-6.51,6.51-6.51h31.15
    c3.55,0,6.51,2.96,6.51,6.51l0,0C856.07,415.4,853.11,418.36,849.56,418.36z"></path>
  <path style="fill:#333F47;" d="M901.81,418.36h-31.15c-3.55,0-6.51-2.96-6.51-6.51l0,0c0-3.55,2.96-6.51,6.51-6.51h31.15
    c3.55,0,6.51,2.96,6.51,6.51l0,0C908.32,415.4,905.36,418.36,901.81,418.36z"></path>
  <path style="fill:#333F47;" d="M954.06,418.36h-31.15c-3.55,0-6.51-2.96-6.51-6.51l0,0c0-3.55,2.96-6.51,6.51-6.51h31.15
    c3.55,0,6.51,2.96,6.51,6.51l0,0C960.56,415.4,957.6,418.36,954.06,418.36z"></path>
  <path style="fill:#333F47;" d="M1006.3,418.36h-31.15c-3.55,0-6.51-2.96-6.51-6.51l0,0c0-3.55,2.96-6.51,6.51-6.51h31.15
    c3.55,0,6.51,2.96,6.51,6.51l0,0C1012.61,415.4,1009.85,418.36,1006.3,418.36z"></path>
  <path style="fill:#333F47;" d="M1058.35,418.36h-31.15c-3.55,0-6.51-2.96-6.51-6.51l0,0c0-3.55,2.96-6.51,6.51-6.51h31.15
    c3.55,0,6.51,2.96,6.51,6.51l0,0C1064.85,415.4,1062.09,418.36,1058.35,418.36z"></path>
  <path style="fill:#333F47;" d="M1110.59,418.36h-31.15c-3.55,0-6.51-2.96-6.51-6.51l0,0c0-3.55,2.96-6.51,6.51-6.51h31.15
    c3.55,0,6.51,2.96,6.51,6.51l0,0C1117.1,415.4,1114.14,418.36,1110.59,418.36z"></path>
  <path style="fill:#333F47;" d="M1162.84,418.36h-31.15c-3.55,0-6.51-2.96-6.51-6.51l0,0c0-3.55,2.96-6.51,6.51-6.51h31.15
    c3.55,0,6.51,2.96,6.51,6.51l0,0C1169.35,415.4,1166.39,418.36,1162.84,418.36z"></path>
  <path style="fill:#333F47;" d="M693.03,461.34h-31.15c-3.55,0-6.51-2.96-6.51-6.51v-22.67c0-3.55,2.96-6.51,6.51-6.51h31.15
    c3.55,0,6.51,2.96,6.51,6.51v22.67C699.53,458.38,696.57,461.34,693.03,461.34z"></path>
  <path style="fill:#333F47;" d="M745.07,461.34h-30.95c-3.55,0-6.51-2.96-6.51-6.51v-22.67c0-3.55,2.96-6.51,6.51-6.51h31.15
    c3.55,0,6.51,2.96,6.51,6.51v22.67C751.58,458.38,748.82,461.34,745.07,461.34z"></path>
  <path style="fill:#333F47;" d="M797.32,461.34h-31.15c-3.55,0-6.51-2.96-6.51-6.51v-22.67c0-3.55,2.96-6.51,6.51-6.51h31.15
    c3.55,0,6.51,2.96,6.51,6.51v22.67C803.83,458.38,800.87,461.34,797.32,461.34z"></path>
  <path style="fill:#333F47;" d="M849.56,461.34h-31.15c-3.55,0-6.51-2.96-6.51-6.51v-22.67c0-3.55,2.96-6.51,6.51-6.51h31.15
    c3.55,0,6.51,2.96,6.51,6.51v22.67C856.07,458.38,853.11,461.34,849.56,461.34z"></path>
  <path style="fill:#333F47;" d="M901.81,461.34h-31.15c-3.55,0-6.51-2.96-6.51-6.51v-22.67c0-3.55,2.96-6.51,6.51-6.51h31.15
    c3.55,0,6.51,2.96,6.51,6.51v22.67C908.32,458.38,905.36,461.34,901.81,461.34z"></path>
  <path style="fill:#333F47;" d="M954.06,461.34h-31.15c-3.55,0-6.51-2.96-6.51-6.51v-22.67c0-3.55,2.96-6.51,6.51-6.51h31.15
    c3.55,0,6.51,2.96,6.51,6.51v22.67C960.56,458.38,957.6,461.34,954.06,461.34z"></path>
  <path style="fill:#333F47;" d="M1006.3,461.34h-31.15c-3.55,0-6.51-2.96-6.51-6.51v-22.67c0-3.55,2.96-6.51,6.51-6.51h31.15
    c3.55,0,6.51,2.96,6.51,6.51v22.67C1012.61,458.38,1009.85,461.34,1006.3,461.34z"></path>
  <path style="fill:#333F47;" d="M1058.35,461.34h-31.15c-3.55,0-6.51-2.96-6.51-6.51v-22.67c0-3.55,2.96-6.51,6.51-6.51h31.15
    c3.55,0,6.51,2.96,6.51,6.51v22.67C1064.85,458.38,1062.09,461.34,1058.35,461.34z"></path>
  <path style="fill:#333F47;" d="M1110.59,461.34h-31.15c-3.55,0-6.51-2.96-6.51-6.51v-22.67c0-3.55,2.96-6.51,6.51-6.51h31.15
    c3.55,0,6.51,2.96,6.51,6.51v22.67C1117.1,458.38,1114.14,461.34,1110.59,461.34z"></path>
  <path style="fill:#333F47;" d="M1162.84,461.34h-31.15c-3.55,0-6.51-2.96-6.51-6.51v-22.67c0-3.55,2.96-6.51,6.51-6.51h31.15
    c3.55,0,6.51,2.96,6.51,6.51v22.67C1169.35,458.38,1166.39,461.34,1162.84,461.34z"></path>
  <path style="fill:#333F47;" d="M745.07,504.32h-83.2c-3.55,0-6.51-2.96-6.51-6.51v-22.67c0-3.55,2.96-6.51,6.51-6.51h83.4
    c3.55,0,6.51,2.96,6.51,6.51v22.67C751.58,501.36,748.82,504.32,745.07,504.32z"></path>
  <path style="fill:#333F47;" d="M797.32,504.32h-31.15c-3.55,0-6.51-2.96-6.51-6.51v-22.67c0-3.55,2.96-6.51,6.51-6.51h31.15
    c3.55,0,6.51,2.96,6.51,6.51v22.67C803.83,501.36,800.87,504.32,797.32,504.32z"></path>
  <path style="fill:#333F47;" d="M849.56,504.32h-31.15c-3.55,0-6.51-2.96-6.51-6.51v-22.67c0-3.55,2.96-6.51,6.51-6.51h31.15
    c3.55,0,6.51,2.96,6.51,6.51v22.67C856.07,501.36,853.11,504.32,849.56,504.32z"></path>
  <path style="fill:#333F47;" d="M901.81,504.32h-31.15c-3.55,0-6.51-2.96-6.51-6.51v-22.67c0-3.55,2.96-6.51,6.51-6.51h31.15
    c3.55,0,6.51,2.96,6.51,6.51v22.67C908.32,501.36,905.36,504.32,901.81,504.32z"></path>
  <path style="fill:#333F47;" d="M954.06,504.32h-31.15c-3.55,0-6.51-2.96-6.51-6.51v-22.67c0-3.55,2.96-6.51,6.51-6.51h31.15
    c3.55,0,6.51,2.96,6.51,6.51v22.67C960.56,501.36,957.6,504.32,954.06,504.32z"></path>
  <path style="fill:#333F47;" d="M1006.3,504.32h-31.15c-3.55,0-6.51-2.96-6.51-6.51v-22.67c0-3.55,2.96-6.51,6.51-6.51h31.15
    c3.55,0,6.51,2.96,6.51,6.51v22.67C1012.61,501.36,1009.85,504.32,1006.3,504.32z"></path>
  <path style="fill:#333F47;" d="M1058.35,504.32h-31.15c-3.55,0-6.51-2.96-6.51-6.51v-22.67c0-3.55,2.96-6.51,6.51-6.51h31.15
    c3.55,0,6.51,2.96,6.51,6.51v22.67C1064.85,501.36,1062.09,504.32,1058.35,504.32z"></path>
  <path style="fill:#333F47;" d="M1162.84,504.32h-83.4c-3.55,0-6.51-2.96-6.51-6.51v-22.67c0-3.55,2.96-6.51,6.51-6.51h83.4
    c3.55,0,6.51,2.96,6.51,6.51v22.67C1169.35,501.36,1166.39,504.32,1162.84,504.32z"></path>
  <path style="fill:#333F47;" d="M693.03,548.48h-31.15c-3.55,0-6.51-2.96-6.51-6.51V519.3c0-3.55,2.96-6.51,6.51-6.51h31.15
    c3.55,0,6.51,2.96,6.51,6.51v22.67C699.53,545.52,696.57,548.48,693.03,548.48z"></path>
  <path style="fill:#333F47;" d="M745.07,548.48h-30.95c-3.55,0-6.51-2.96-6.51-6.51V519.3c0-3.55,2.96-6.51,6.51-6.51h31.15
    c3.55,0,6.51,2.96,6.51,6.51v22.67C751.58,545.52,748.82,548.48,745.07,548.48z"></path>
  <path style="fill:#333F47;" d="M797.32,548.48h-31.15c-3.55,0-6.51-2.96-6.51-6.51V519.3c0-3.55,2.96-6.51,6.51-6.51h31.15
    c3.55,0,6.51,2.96,6.51,6.51v22.67C803.83,545.52,800.87,548.48,797.32,548.48z"></path>
  <path style="fill:#333F47;" d="M1006.3,548.48H818.61c-3.55,0-6.51-2.96-6.51-6.51V519.3c0-3.55,2.96-6.51,6.51-6.51h187.69
    c3.55,0,6.51,2.96,6.51,6.51v22.67C1012.61,545.52,1009.85,548.48,1006.3,548.48z"></path>
  <path style="fill:#333F47;" d="M1058.35,548.48h-31.15c-3.55,0-6.51-2.96-6.51-6.51V519.3c0-3.55,2.96-6.51,6.51-6.51h31.15
    c3.55,0,6.51,2.96,6.51,6.51v22.67C1064.85,545.52,1062.09,548.48,1058.35,548.48z"></path>
  <path style="fill:#333F47;" d="M1162.84,548.48h-83.4c-3.55,0-6.51-2.96-6.51-6.51v-4.93c0-3.55,2.96-6.51,6.51-6.51h83.4
    c3.55,0,6.51,2.96,6.51,6.51v4.93C1169.35,545.52,1166.39,548.48,1162.84,548.48z"></path>
  <path style="fill:#333F47;" d="M1129.52,530.54h-16.76c-3.55,0-6.51-2.96-6.51-6.51v-4.93c0-3.55,2.96-6.51,6.51-6.51h16.76
    c3.55,0,6.51,2.96,6.51,6.51v4.93C1136.03,527.58,1133.27,530.54,1129.52,530.54z"></path>
  <rect x="1106.26" y="527.97" style="fill:#63717C;" width="29.77" height="2.76"></rect>
  <path style="fill:#202428;" d="M1220.8,352.9H600.76V45.94c0-17.15,14-31.15,31.15-31.15h557.94c17.15,0,31.15,14,31.15,31.15
    V352.9H1220.8z"></path>
  <path style="fill:#B2BAC2;" d="M987.57,664.6H833.99c-7.29,0-13.41-5.91-13.41-13.41v-55.6c0-7.29,5.91-13.41,13.41-13.41h153.58
    c7.29,0,13.41,5.91,13.41,13.41v55.6C1000.98,658.49,995.06,664.6,987.57,664.6z"></path>
  <rect x="617.91" y="41.6" style="fill:#FFFFFF;" width="585.74" height="293.17"></rect>

    <line style="fill:none;stroke:#5FCF80;stroke-width:10;stroke-linecap:round;stroke-linejoin:round;stroke-miterlimit:10;" x1="750.59" y1="89.9" x2="817.63" y2="89.9"></line>

    <line style="fill:none;stroke:#5FCF80;stroke-width:10;stroke-linecap:round;stroke-linejoin:round;stroke-miterlimit:10;" x1="750.59" y1="176" x2="817.63" y2="176"></line>

    <line style="fill:none;stroke:#FFD466;stroke-width:10;stroke-linecap:round;stroke-linejoin:round;stroke-miterlimit:10;" x1="750.59" y1="117.53" x2="1125.18" y2="117.53"></line>

    <line style="fill:none;stroke:#5FCF80;stroke-width:10;stroke-linecap:round;stroke-linejoin:round;stroke-miterlimit:10;" x1="750.59" y1="226.82" x2="817.63" y2="226.82"></line>

    <line style="fill:none;stroke:#5FCF80;stroke-width:10;stroke-linecap:round;stroke-linejoin:round;stroke-miterlimit:10;" x1="750.59" y1="282" x2="817.63" y2="282"></line>

    <line style="fill:none;stroke:#F9845B;stroke-width:10;stroke-linecap:round;stroke-linejoin:round;stroke-miterlimit:10;" x1="750.59" y1="254.45" x2="930.62" y2="254.45"></line>

    <line style="fill:none;stroke:#3F8ABF;stroke-width:10;stroke-linecap:round;stroke-linejoin:round;stroke-miterlimit:10;" x1="750.59" y1="147.08" x2="994.62" y2="147.08"></line>
</g>
</svg>